<?xml version="1.0" encoding="UTF-8" standalone="no"?>
<!DOCTYPE svg PUBLIC "-//W3C//DTD SVG 1.1//EN"
 "http://www.w3.org/Graphics/SVG/1.1/DTD/svg11.dtd">
<!-- Generated by graphviz version 2.40.1 (20161225.0304)
 -->
<!-- Title: unix Pages: 1 -->
<svg width="432pt" height="341pt"
 viewBox="0.00 0.00 432.00 341.21" xmlns="http://www.w3.org/2000/svg" xmlns:xlink="http://www.w3.org/1999/xlink">
<g id="graph0" class="graph" transform="scale(.4466 .4466) rotate(0) translate(4 760)">
<title>unix</title>
<polygon fill="#ffffff" stroke="transparent" points="-4,4 -4,-760 963.2918,-760 963.2918,4 -4,4"/>
<!-- 5th Edition -->
<g id="node1" class="node">
<title>5th Edition</title>
<ellipse fill="#b2dfee" stroke="#b2dfee" cx="513.8973" cy="-738" rx="50.0912" ry="18"/>
<text text-anchor="middle" x="513.8973" y="-734.3" font-family="Times,serif" font-size="14.00" fill="#000000">5th Edition</text>
</g>
<!-- 6th Edition -->
<g id="node2" class="node">
<title>6th Edition</title>
<ellipse fill="#b2dfee" stroke="#b2dfee" cx="418.8973" cy="-666" rx="50.0912" ry="18"/>
<text text-anchor="middle" x="418.8973" y="-662.3" font-family="Times,serif" font-size="14.00" fill="#000000">6th Edition</text>
</g>
<!-- 5th Edition&#45;&gt;6th Edition -->
<g id="edge1" class="edge">
<title>5th Edition&#45;&gt;6th Edition</title>
<path fill="none" stroke="#000000" d="M492.3404,-721.6621C479.3438,-711.812 462.6094,-699.1291 448.3977,-688.3582"/>
<polygon fill="#000000" stroke="#000000" points="450.4528,-685.5241 440.369,-682.2733 446.2246,-691.1029 450.4528,-685.5241"/>
</g>
<!-- PWB 1.0 -->
<g id="node3" class="node">
<title>PWB 1.0</title>
<ellipse fill="#b2dfee" stroke="#b2dfee" cx="668.8973" cy="-666" rx="44.393" ry="18"/>
<text text-anchor="middle" x="668.8973" y="-662.3" font-family="Times,serif" font-size="14.00" fill="#000000">PWB 1.0</text>
</g>
<!-- 5th Edition&#45;&gt;PWB 1.0 -->
<g id="edge2" class="edge">
<title>5th Edition&#45;&gt;PWB 1.0</title>
<path fill="none" stroke="#000000" d="M544.8914,-723.6028C569.4404,-712.1994 603.8687,-696.2069 630.2218,-683.9654"/>
<polygon fill="#000000" stroke="#000000" points="631.9375,-687.0277 639.5323,-679.6405 628.9885,-680.6792 631.9375,-687.0277"/>
</g>
<!-- LSX -->
<g id="node4" class="node">
<title>LSX</title>
<ellipse fill="#b2dfee" stroke="#b2dfee" cx="579.8973" cy="-594" rx="27.0966" ry="18"/>
<text text-anchor="middle" x="579.8973" y="-590.3" font-family="Times,serif" font-size="14.00" fill="#000000">LSX</text>
</g>
<!-- 6th Edition&#45;&gt;LSX -->
<g id="edge3" class="edge">
<title>6th Edition&#45;&gt;LSX</title>
<path fill="none" stroke="#000000" d="M451.4381,-652.2719C476.5465,-641.5726 512.0815,-626.198 542.8973,-612 544.9005,-611.0771 546.9586,-610.115 549.0294,-609.1365"/>
<polygon fill="#000000" stroke="#000000" points="550.5498,-612.2891 558.0572,-604.8132 547.5264,-605.9757 550.5498,-612.2891"/>
</g>
<!-- 1 BSD -->
<g id="node5" class="node">
<title>1 BSD</title>
<ellipse fill="#b2dfee" stroke="#b2dfee" cx="121.8973" cy="-594" rx="34.394" ry="18"/>
<text text-anchor="middle" x="121.8973" y="-590.3" font-family="Times,serif" font-size="14.00" fill="#000000">1 BSD</text>
</g>
<!-- 6th Edition&#45;&gt;1 BSD -->
<g id="edge4" class="edge">
<title>6th Edition&#45;&gt;1 BSD</title>
<path fill="none" stroke="#000000" d="M377.288,-655.9129C320.6282,-642.1772 219.8035,-617.7348 163.268,-604.0292"/>
<polygon fill="#000000" stroke="#000000" points="163.7907,-600.5547 153.2476,-601.6001 162.1415,-607.3576 163.7907,-600.5547"/>
</g>
<!-- Mini Unix -->
<g id="node6" class="node">
<title>Mini Unix</title>
<ellipse fill="#b2dfee" stroke="#b2dfee" cx="357.8973" cy="-594" rx="48.1917" ry="18"/>
<text text-anchor="middle" x="357.8973" y="-590.3" font-family="Times,serif" font-size="14.00" fill="#000000">Mini Unix</text>
</g>
<!-- 6th Edition&#45;&gt;Mini Unix -->
<g id="edge5" class="edge">
<title>6th Edition&#45;&gt;Mini Unix</title>
<path fill="none" stroke="#000000" d="M404.1309,-648.5708C396.6382,-639.7269 387.4009,-628.8239 379.1579,-619.0945"/>
<polygon fill="#000000" stroke="#000000" points="381.6624,-616.6361 372.5278,-611.2687 376.3215,-621.161 381.6624,-616.6361"/>
</g>
<!-- Wollongong -->
<g id="node7" class="node">
<title>Wollongong</title>
<ellipse fill="#b2dfee" stroke="#b2dfee" cx="478.8973" cy="-594" rx="55.4913" ry="18"/>
<text text-anchor="middle" x="478.8973" y="-590.3" font-family="Times,serif" font-size="14.00" fill="#000000">Wollongong</text>
</g>
<!-- 6th Edition&#45;&gt;Wollongong -->
<g id="edge6" class="edge">
<title>6th Edition&#45;&gt;Wollongong</title>
<path fill="none" stroke="#000000" d="M433.4217,-648.5708C440.7374,-639.7919 449.7439,-628.9841 457.8063,-619.3093"/>
<polygon fill="#000000" stroke="#000000" points="460.5857,-621.4411 464.2988,-611.5182 455.2082,-616.9598 460.5857,-621.4411"/>
</g>
<!-- Interdata -->
<g id="node8" class="node">
<title>Interdata</title>
<ellipse fill="#b2dfee" stroke="#b2dfee" cx="249.8973" cy="-594" rx="42.4939" ry="18"/>
<text text-anchor="middle" x="249.8973" y="-590.3" font-family="Times,serif" font-size="14.00" fill="#000000">Interdata</text>
</g>
<!-- 6th Edition&#45;&gt;Interdata -->
<g id="edge7" class="edge">
<title>6th Edition&#45;&gt;Interdata</title>
<path fill="none" stroke="#000000" d="M386.3124,-652.1177C358.6502,-640.3326 318.8689,-623.3843 289.3981,-610.8287"/>
<polygon fill="#000000" stroke="#000000" points="290.4031,-607.4525 279.8314,-606.753 287.6594,-613.8924 290.4031,-607.4525"/>
</g>
<!-- PWB 1.2 -->
<g id="node28" class="node">
<title>PWB 1.2</title>
<ellipse fill="#b2dfee" stroke="#b2dfee" cx="668.8973" cy="-594" rx="44.393" ry="18"/>
<text text-anchor="middle" x="668.8973" y="-590.3" font-family="Times,serif" font-size="14.00" fill="#000000">PWB 1.2</text>
</g>
<!-- PWB 1.0&#45;&gt;PWB 1.2 -->
<g id="edge31" class="edge">
<title>PWB 1.0&#45;&gt;PWB 1.2</title>
<path fill="none" stroke="#000000" d="M668.8973,-647.8314C668.8973,-640.131 668.8973,-630.9743 668.8973,-622.4166"/>
<polygon fill="#000000" stroke="#000000" points="672.3974,-622.4132 668.8973,-612.4133 665.3974,-622.4133 672.3974,-622.4132"/>
</g>
<!-- USG 1.0 -->
<g id="node29" class="node">
<title>USG 1.0</title>
<ellipse fill="#b2dfee" stroke="#b2dfee" cx="772.8973" cy="-594" rx="42.4939" ry="18"/>
<text text-anchor="middle" x="772.8973" y="-590.3" font-family="Times,serif" font-size="14.00" fill="#000000">USG 1.0</text>
</g>
<!-- PWB 1.0&#45;&gt;USG 1.0 -->
<g id="edge32" class="edge">
<title>PWB 1.0&#45;&gt;USG 1.0</title>
<path fill="none" stroke="#000000" d="M691.4638,-650.3771C706.2832,-640.1175 725.8582,-626.5656 742.102,-615.3199"/>
<polygon fill="#000000" stroke="#000000" points="744.5025,-617.9149 750.7322,-609.3451 740.518,-612.1596 744.5025,-617.9149"/>
</g>
<!-- 2 BSD -->
<g id="node19" class="node">
<title>2 BSD</title>
<ellipse fill="#b2dfee" stroke="#b2dfee" cx="77.8973" cy="-234" rx="34.394" ry="18"/>
<text text-anchor="middle" x="77.8973" y="-230.3" font-family="Times,serif" font-size="14.00" fill="#000000">2 BSD</text>
</g>
<!-- 1 BSD&#45;&gt;2 BSD -->
<g id="edge19" class="edge">
<title>1 BSD&#45;&gt;2 BSD</title>
<path fill="none" stroke="#000000" d="M115.2669,-576.0988C105.8939,-549.1451 89.8973,-496.3538 89.8973,-450 89.8973,-450 89.8973,-450 89.8973,-378 89.8973,-337.7369 85.1807,-291.3594 81.6616,-262.3596"/>
<polygon fill="#000000" stroke="#000000" points="85.0981,-261.6332 80.3838,-252.145 78.1522,-262.5021 85.0981,-261.6332"/>
</g>
<!-- Unix/TS 3.0 -->
<g id="node9" class="node">
<title>Unix/TS 3.0</title>
<ellipse fill="#b2dfee" stroke="#b2dfee" cx="601.8973" cy="-378" rx="54.6905" ry="18"/>
<text text-anchor="middle" x="601.8973" y="-374.3" font-family="Times,serif" font-size="14.00" fill="#000000">Unix/TS 3.0</text>
</g>
<!-- Interdata&#45;&gt;Unix/TS 3.0 -->
<g id="edge8" class="edge">
<title>Interdata&#45;&gt;Unix/TS 3.0</title>
<path fill="none" stroke="#000000" d="M274.0917,-579.1534C335.1633,-541.6777 495.7524,-443.1344 566.9972,-399.416"/>
<polygon fill="#000000" stroke="#000000" points="568.9408,-402.3298 575.6335,-394.1165 565.2797,-396.3635 568.9408,-402.3298"/>
</g>
<!-- PWB 2.0 -->
<g id="node10" class="node">
<title>PWB 2.0</title>
<ellipse fill="#b2dfee" stroke="#b2dfee" cx="548.8973" cy="-522" rx="44.393" ry="18"/>
<text text-anchor="middle" x="548.8973" y="-518.3" font-family="Times,serif" font-size="14.00" fill="#000000">PWB 2.0</text>
</g>
<!-- Interdata&#45;&gt;PWB 2.0 -->
<g id="edge9" class="edge">
<title>Interdata&#45;&gt;PWB 2.0</title>
<path fill="none" stroke="#000000" d="M281.4929,-582.0103C287.8624,-579.8314 294.5512,-577.7105 300.8973,-576 383.8828,-553.633 407.4981,-560.7708 490.8973,-540 495.3333,-538.8952 499.9305,-537.6483 504.507,-536.3391"/>
<polygon fill="#000000" stroke="#000000" points="505.8265,-539.5987 514.4221,-533.4045 503.8399,-532.8865 505.8265,-539.5987"/>
</g>
<!-- 7th Edition -->
<g id="node11" class="node">
<title>7th Edition</title>
<ellipse fill="#b2dfee" stroke="#b2dfee" cx="249.8973" cy="-522" rx="50.0912" ry="18"/>
<text text-anchor="middle" x="249.8973" y="-518.3" font-family="Times,serif" font-size="14.00" fill="#000000">7th Edition</text>
</g>
<!-- Interdata&#45;&gt;7th Edition -->
<g id="edge10" class="edge">
<title>Interdata&#45;&gt;7th Edition</title>
<path fill="none" stroke="#000000" d="M249.8973,-575.8314C249.8973,-568.131 249.8973,-558.9743 249.8973,-550.4166"/>
<polygon fill="#000000" stroke="#000000" points="253.3974,-550.4132 249.8973,-540.4133 246.3974,-550.4133 253.3974,-550.4132"/>
</g>
<!-- TS 4.0 -->
<g id="node38" class="node">
<title>TS 4.0</title>
<ellipse fill="#b2dfee" stroke="#b2dfee" cx="684.8973" cy="-234" rx="34.394" ry="18"/>
<text text-anchor="middle" x="684.8973" y="-230.3" font-family="Times,serif" font-size="14.00" fill="#000000">TS 4.0</text>
</g>
<!-- Unix/TS 3.0&#45;&gt;TS 4.0 -->
<g id="edge44" class="edge">
<title>Unix/TS 3.0&#45;&gt;TS 4.0</title>
<path fill="none" stroke="#000000" d="M612.2415,-360.0535C626.7502,-334.8819 653.2314,-288.9386 669.9016,-260.0167"/>
<polygon fill="#000000" stroke="#000000" points="672.9802,-261.6842 674.9417,-251.2725 666.9155,-258.1885 672.9802,-261.6842"/>
</g>
<!-- PWB 2.0&#45;&gt;Unix/TS 3.0 -->
<g id="edge42" class="edge">
<title>PWB 2.0&#45;&gt;Unix/TS 3.0</title>
<path fill="none" stroke="#000000" d="M545.6193,-503.9818C543.0356,-485.2413 541.2825,-455.4221 550.8973,-432 555.556,-420.6514 563.7951,-410.2802 572.3102,-401.7271"/>
<polygon fill="#000000" stroke="#000000" points="574.8951,-404.1008 579.7812,-394.7 570.0991,-399.0019 574.8951,-404.1008"/>
</g>
<!-- 8th Edition -->
<g id="node12" class="node">
<title>8th Edition</title>
<ellipse fill="#b2dfee" stroke="#b2dfee" cx="448.8973" cy="-162" rx="50.0912" ry="18"/>
<text text-anchor="middle" x="448.8973" y="-158.3" font-family="Times,serif" font-size="14.00" fill="#000000">8th Edition</text>
</g>
<!-- 7th Edition&#45;&gt;8th Edition -->
<g id="edge11" class="edge">
<title>7th Edition&#45;&gt;8th Edition</title>
<path fill="none" stroke="#000000" d="M293.7888,-513.2957C338.2773,-503.5902 402.909,-486.769 419.8973,-468 447.3315,-437.6904 438.8973,-418.8816 438.8973,-378 438.8973,-378 438.8973,-378 438.8973,-306 438.8973,-265.7793 442.8279,-219.391 445.7605,-190.3773"/>
<polygon fill="#000000" stroke="#000000" points="449.2701,-190.4662 446.8253,-180.1573 442.3078,-189.7407 449.2701,-190.4662"/>
</g>
<!-- 32V -->
<g id="node13" class="node">
<title>32V</title>
<ellipse fill="#b2dfee" stroke="#b2dfee" cx="383.8973" cy="-450" rx="27" ry="18"/>
<text text-anchor="middle" x="383.8973" y="-446.3" font-family="Times,serif" font-size="14.00" fill="#000000">32V</text>
</g>
<!-- 7th Edition&#45;&gt;32V -->
<g id="edge12" class="edge">
<title>7th Edition&#45;&gt;32V</title>
<path fill="none" stroke="#000000" d="M277.9881,-506.9064C300.247,-494.9465 331.2739,-478.2753 353.992,-466.0686"/>
<polygon fill="#000000" stroke="#000000" points="355.712,-469.1177 362.8643,-461.3013 352.3987,-462.9514 355.712,-469.1177"/>
</g>
<!-- V7M -->
<g id="node14" class="node">
<title>V7M</title>
<ellipse fill="#b2dfee" stroke="#b2dfee" cx="29.8973" cy="-378" rx="29.795" ry="18"/>
<text text-anchor="middle" x="29.8973" y="-374.3" font-family="Times,serif" font-size="14.00" fill="#000000">V7M</text>
</g>
<!-- 7th Edition&#45;&gt;V7M -->
<g id="edge13" class="edge">
<title>7th Edition&#45;&gt;V7M</title>
<path fill="none" stroke="#000000" d="M212.9555,-509.7132C187.377,-500.3175 153.1631,-485.9391 125.8973,-468 97.2137,-449.128 69.1215,-421.3949 50.8125,-401.7097"/>
<polygon fill="#000000" stroke="#000000" points="53.1593,-399.0897 43.826,-394.0756 47.9954,-403.8156 53.1593,-399.0897"/>
</g>
<!-- Ultrix&#45;11 -->
<g id="node15" class="node">
<title>Ultrix&#45;11</title>
<ellipse fill="#b2dfee" stroke="#b2dfee" cx="106.8973" cy="-90" rx="43.5923" ry="18"/>
<text text-anchor="middle" x="106.8973" y="-86.3" font-family="Times,serif" font-size="14.00" fill="#000000">Ultrix&#45;11</text>
</g>
<!-- 7th Edition&#45;&gt;Ultrix&#45;11 -->
<g id="edge14" class="edge">
<title>7th Edition&#45;&gt;Ultrix&#45;11</title>
<path fill="none" stroke="#000000" d="M214.2145,-509.1314C194.9868,-500.4042 172.4847,-486.9662 158.8973,-468 135.0889,-434.7665 139.8973,-418.8816 139.8973,-378 139.8973,-378 139.8973,-378 139.8973,-234 139.8973,-192.6545 126.8121,-146.2804 117.1212,-117.6051"/>
<polygon fill="#000000" stroke="#000000" points="120.3296,-116.1756 113.735,-107.8833 113.7191,-118.4782 120.3296,-116.1756"/>
</g>
<!-- Xenix -->
<g id="node16" class="node">
<title>Xenix</title>
<ellipse fill="#b2dfee" stroke="#b2dfee" cx="199.8973" cy="-450" rx="32.4942" ry="18"/>
<text text-anchor="middle" x="199.8973" y="-446.3" font-family="Times,serif" font-size="14.00" fill="#000000">Xenix</text>
</g>
<!-- 7th Edition&#45;&gt;Xenix -->
<g id="edge15" class="edge">
<title>7th Edition&#45;&gt;Xenix</title>
<path fill="none" stroke="#000000" d="M237.5378,-504.2022C231.5155,-495.5301 224.1651,-484.9455 217.5633,-475.4389"/>
<polygon fill="#000000" stroke="#000000" points="220.3492,-473.3145 211.7704,-467.0972 214.5996,-477.3073 220.3492,-473.3145"/>
</g>
<!-- UniPlus+ -->
<g id="node17" class="node">
<title>UniPlus+</title>
<ellipse fill="#b2dfee" stroke="#b2dfee" cx="294.8973" cy="-450" rx="44.393" ry="18"/>
<text text-anchor="middle" x="294.8973" y="-446.3" font-family="Times,serif" font-size="14.00" fill="#000000">UniPlus+</text>
</g>
<!-- 7th Edition&#45;&gt;UniPlus+ -->
<g id="edge16" class="edge">
<title>7th Edition&#45;&gt;UniPlus+</title>
<path fill="none" stroke="#000000" d="M261.0209,-504.2022C266.3069,-495.7448 272.7295,-485.4685 278.5555,-476.147"/>
<polygon fill="#000000" stroke="#000000" points="281.5697,-477.928 283.9017,-467.593 275.6337,-474.218 281.5697,-477.928"/>
</g>
<!-- 9th Edition -->
<g id="node18" class="node">
<title>9th Edition</title>
<ellipse fill="#b2dfee" stroke="#b2dfee" cx="525.8973" cy="-90" rx="50.0912" ry="18"/>
<text text-anchor="middle" x="525.8973" y="-86.3" font-family="Times,serif" font-size="14.00" fill="#000000">9th Edition</text>
</g>
<!-- 8th Edition&#45;&gt;9th Edition -->
<g id="edge18" class="edge">
<title>8th Edition&#45;&gt;9th Edition</title>
<path fill="none" stroke="#000000" d="M467.1453,-144.937C477.0223,-135.7013 489.3855,-124.141 500.2193,-114.0106"/>
<polygon fill="#000000" stroke="#000000" points="502.8666,-116.327 507.7804,-106.9405 498.0857,-111.214 502.8666,-116.327"/>
</g>
<!-- 3 BSD -->
<g id="node22" class="node">
<title>3 BSD</title>
<ellipse fill="#b2dfee" stroke="#b2dfee" cx="372.8973" cy="-378" rx="34.394" ry="18"/>
<text text-anchor="middle" x="372.8973" y="-374.3" font-family="Times,serif" font-size="14.00" fill="#000000">3 BSD</text>
</g>
<!-- 32V&#45;&gt;3 BSD -->
<g id="edge23" class="edge">
<title>32V&#45;&gt;3 BSD</title>
<path fill="none" stroke="#000000" d="M381.1216,-431.8314C379.9451,-424.131 378.5462,-414.9743 377.2388,-406.4166"/>
<polygon fill="#000000" stroke="#000000" points="380.6807,-405.7699 375.7105,-396.4133 373.761,-406.8272 380.6807,-405.7699"/>
</g>
<!-- V7M&#45;&gt;Ultrix&#45;11 -->
<g id="edge17" class="edge">
<title>V7M&#45;&gt;Ultrix&#45;11</title>
<path fill="none" stroke="#000000" d="M27.6266,-359.5851C24.4857,-329.0652 20.6853,-266.3708 34.8973,-216 45.4996,-178.4234 69.6497,-140.1685 87.0604,-115.8263"/>
<polygon fill="#000000" stroke="#000000" points="90.0595,-117.6541 93.1323,-107.5146 84.4071,-113.5248 90.0595,-117.6541"/>
</g>
<!-- 2.8 BSD -->
<g id="node20" class="node">
<title>2.8 BSD</title>
<ellipse fill="#b2dfee" stroke="#b2dfee" cx="209.8973" cy="-162" rx="41.6928" ry="18"/>
<text text-anchor="middle" x="209.8973" y="-158.3" font-family="Times,serif" font-size="14.00" fill="#000000">2.8 BSD</text>
</g>
<!-- 2 BSD&#45;&gt;2.8 BSD -->
<g id="edge20" class="edge">
<title>2 BSD&#45;&gt;2.8 BSD</title>
<path fill="none" stroke="#000000" d="M101.8016,-220.9613C122.265,-209.7994 151.9948,-193.5832 175.0987,-180.9811"/>
<polygon fill="#000000" stroke="#000000" points="176.809,-184.0351 183.9119,-176.1739 173.457,-177.8898 176.809,-184.0351"/>
</g>
<!-- 2.8 BSD&#45;&gt;Ultrix&#45;11 -->
<g id="edge21" class="edge">
<title>2.8 BSD&#45;&gt;Ultrix&#45;11</title>
<path fill="none" stroke="#000000" d="M187.8013,-146.5542C173.2378,-136.3739 153.9566,-122.8958 137.8702,-111.6509"/>
<polygon fill="#000000" stroke="#000000" points="139.5136,-108.5294 129.3123,-105.6687 135.5031,-114.2666 139.5136,-108.5294"/>
</g>
<!-- 2.9 BSD -->
<g id="node21" class="node">
<title>2.9 BSD</title>
<ellipse fill="#b2dfee" stroke="#b2dfee" cx="209.8973" cy="-90" rx="41.6928" ry="18"/>
<text text-anchor="middle" x="209.8973" y="-86.3" font-family="Times,serif" font-size="14.00" fill="#000000">2.9 BSD</text>
</g>
<!-- 2.8 BSD&#45;&gt;2.9 BSD -->
<g id="edge22" class="edge">
<title>2.8 BSD&#45;&gt;2.9 BSD</title>
<path fill="none" stroke="#000000" d="M209.8973,-143.8314C209.8973,-136.131 209.8973,-126.9743 209.8973,-118.4166"/>
<polygon fill="#000000" stroke="#000000" points="213.3974,-118.4132 209.8973,-108.4133 206.3974,-118.4133 213.3974,-118.4132"/>
</g>
<!-- 4 BSD -->
<g id="node23" class="node">
<title>4 BSD</title>
<ellipse fill="#b2dfee" stroke="#b2dfee" cx="360.8973" cy="-306" rx="34.394" ry="18"/>
<text text-anchor="middle" x="360.8973" y="-302.3" font-family="Times,serif" font-size="14.00" fill="#000000">4 BSD</text>
</g>
<!-- 3 BSD&#45;&gt;4 BSD -->
<g id="edge24" class="edge">
<title>3 BSD&#45;&gt;4 BSD</title>
<path fill="none" stroke="#000000" d="M369.8692,-359.8314C368.5858,-352.131 367.0597,-342.9743 365.6335,-334.4166"/>
<polygon fill="#000000" stroke="#000000" points="369.0627,-333.7018 363.9662,-324.4133 362.1579,-334.8526 369.0627,-333.7018"/>
</g>
<!-- 4.1 BSD -->
<g id="node24" class="node">
<title>4.1 BSD</title>
<ellipse fill="#b2dfee" stroke="#b2dfee" cx="358.8973" cy="-234" rx="41.6928" ry="18"/>
<text text-anchor="middle" x="358.8973" y="-230.3" font-family="Times,serif" font-size="14.00" fill="#000000">4.1 BSD</text>
</g>
<!-- 4 BSD&#45;&gt;4.1 BSD -->
<g id="edge25" class="edge">
<title>4 BSD&#45;&gt;4.1 BSD</title>
<path fill="none" stroke="#000000" d="M360.3927,-287.8314C360.1788,-280.131 359.9244,-270.9743 359.6867,-262.4166"/>
<polygon fill="#000000" stroke="#000000" points="363.1852,-262.3122 359.4088,-252.4133 356.1879,-262.5066 363.1852,-262.3122"/>
</g>
<!-- 4.1 BSD&#45;&gt;8th Edition -->
<g id="edge28" class="edge">
<title>4.1 BSD&#45;&gt;8th Edition</title>
<path fill="none" stroke="#000000" d="M378.8713,-218.0209C391.0508,-208.2772 406.8167,-195.6645 420.3043,-184.8745"/>
<polygon fill="#000000" stroke="#000000" points="422.733,-187.4137 428.3553,-178.4336 418.3601,-181.9476 422.733,-187.4137"/>
</g>
<!-- 4.1 BSD&#45;&gt;2.8 BSD -->
<g id="edge27" class="edge">
<title>4.1 BSD&#45;&gt;2.8 BSD</title>
<path fill="none" stroke="#000000" d="M330.8716,-220.4574C307.1464,-208.9928 272.9513,-192.469 246.9653,-179.912"/>
<polygon fill="#000000" stroke="#000000" points="248.3242,-176.6815 237.7974,-175.4819 245.2785,-182.9842 248.3242,-176.6815"/>
</g>
<!-- 4.2 BSD -->
<g id="node25" class="node">
<title>4.2 BSD</title>
<ellipse fill="#b2dfee" stroke="#b2dfee" cx="338.8973" cy="-162" rx="41.6928" ry="18"/>
<text text-anchor="middle" x="338.8973" y="-158.3" font-family="Times,serif" font-size="14.00" fill="#000000">4.2 BSD</text>
</g>
<!-- 4.1 BSD&#45;&gt;4.2 BSD -->
<g id="edge26" class="edge">
<title>4.1 BSD&#45;&gt;4.2 BSD</title>
<path fill="none" stroke="#000000" d="M353.8505,-215.8314C351.6547,-207.9266 349.0327,-198.4872 346.6019,-189.7365"/>
<polygon fill="#000000" stroke="#000000" points="349.9221,-188.6118 343.8733,-179.9134 343.1775,-190.4854 349.9221,-188.6118"/>
</g>
<!-- 4.3 BSD -->
<g id="node26" class="node">
<title>4.3 BSD</title>
<ellipse fill="#b2dfee" stroke="#b2dfee" cx="415.8973" cy="-90" rx="41.6928" ry="18"/>
<text text-anchor="middle" x="415.8973" y="-86.3" font-family="Times,serif" font-size="14.00" fill="#000000">4.3 BSD</text>
</g>
<!-- 4.2 BSD&#45;&gt;4.3 BSD -->
<g id="edge29" class="edge">
<title>4.2 BSD&#45;&gt;4.3 BSD</title>
<path fill="none" stroke="#000000" d="M356.3698,-145.6621C366.5365,-136.1556 379.525,-124.0105 390.7738,-113.4921"/>
<polygon fill="#000000" stroke="#000000" points="393.3137,-115.909 398.2275,-106.5225 388.5327,-110.796 393.3137,-115.909"/>
</g>
<!-- Ultrix&#45;32 -->
<g id="node27" class="node">
<title>Ultrix&#45;32</title>
<ellipse fill="#b2dfee" stroke="#b2dfee" cx="312.8973" cy="-90" rx="43.5923" ry="18"/>
<text text-anchor="middle" x="312.8973" y="-86.3" font-family="Times,serif" font-size="14.00" fill="#000000">Ultrix&#45;32</text>
</g>
<!-- 4.2 BSD&#45;&gt;Ultrix&#45;32 -->
<g id="edge30" class="edge">
<title>4.2 BSD&#45;&gt;Ultrix&#45;32</title>
<path fill="none" stroke="#000000" d="M332.4704,-144.2022C329.5641,-136.1541 326.063,-126.4588 322.8303,-117.5067"/>
<polygon fill="#000000" stroke="#000000" points="326.0289,-116.0593 319.3405,-107.8425 319.4451,-118.4369 326.0289,-116.0593"/>
</g>
<!-- PWB 1.2&#45;&gt;PWB 2.0 -->
<g id="edge33" class="edge">
<title>PWB 1.2&#45;&gt;PWB 2.0</title>
<path fill="none" stroke="#000000" d="M644.0333,-579.0816C626.1736,-568.3657 601.901,-553.8022 582.3436,-542.0678"/>
<polygon fill="#000000" stroke="#000000" points="584.1053,-539.0431 573.7296,-536.8993 580.5038,-545.0456 584.1053,-539.0431"/>
</g>
<!-- CB Unix 1 -->
<g id="node30" class="node">
<title>CB Unix 1</title>
<ellipse fill="#b2dfee" stroke="#b2dfee" cx="803.8973" cy="-522" rx="49.2915" ry="18"/>
<text text-anchor="middle" x="803.8973" y="-518.3" font-family="Times,serif" font-size="14.00" fill="#000000">CB Unix 1</text>
</g>
<!-- USG 1.0&#45;&gt;CB Unix 1 -->
<g id="edge34" class="edge">
<title>USG 1.0&#45;&gt;CB Unix 1</title>
<path fill="none" stroke="#000000" d="M780.5603,-576.2022C784.0627,-568.0675 788.2897,-558.2501 792.1784,-549.2181"/>
<polygon fill="#000000" stroke="#000000" points="795.4752,-550.4115 796.2151,-539.8425 789.0458,-547.6433 795.4752,-550.4115"/>
</g>
<!-- USG 2.0 -->
<g id="node31" class="node">
<title>USG 2.0</title>
<ellipse fill="#b2dfee" stroke="#b2dfee" cx="679.8973" cy="-522" rx="42.4939" ry="18"/>
<text text-anchor="middle" x="679.8973" y="-518.3" font-family="Times,serif" font-size="14.00" fill="#000000">USG 2.0</text>
</g>
<!-- USG 1.0&#45;&gt;USG 2.0 -->
<g id="edge35" class="edge">
<title>USG 1.0&#45;&gt;USG 2.0</title>
<path fill="none" stroke="#000000" d="M752.2576,-578.0209C739.3744,-568.0468 722.608,-555.0663 708.4587,-544.112"/>
<polygon fill="#000000" stroke="#000000" points="710.5292,-541.2887 700.4794,-537.9345 706.244,-546.8238 710.5292,-541.2887"/>
</g>
<!-- CB Unix 2 -->
<g id="node32" class="node">
<title>CB Unix 2</title>
<ellipse fill="#b2dfee" stroke="#b2dfee" cx="838.8973" cy="-450" rx="49.2915" ry="18"/>
<text text-anchor="middle" x="838.8973" y="-446.3" font-family="Times,serif" font-size="14.00" fill="#000000">CB Unix 2</text>
</g>
<!-- CB Unix 1&#45;&gt;CB Unix 2 -->
<g id="edge36" class="edge">
<title>CB Unix 1&#45;&gt;CB Unix 2</title>
<path fill="none" stroke="#000000" d="M812.549,-504.2022C816.5455,-495.981 821.3774,-486.041 825.8063,-476.9301"/>
<polygon fill="#000000" stroke="#000000" points="828.9997,-478.3664 830.2239,-467.8425 822.7041,-475.306 828.9997,-478.3664"/>
</g>
<!-- USG 3.0 -->
<g id="node36" class="node">
<title>USG 3.0</title>
<ellipse fill="#b2dfee" stroke="#b2dfee" cx="601.8973" cy="-450" rx="42.4939" ry="18"/>
<text text-anchor="middle" x="601.8973" y="-446.3" font-family="Times,serif" font-size="14.00" fill="#000000">USG 3.0</text>
</g>
<!-- USG 2.0&#45;&gt;USG 3.0 -->
<g id="edge40" class="edge">
<title>USG 2.0&#45;&gt;USG 3.0</title>
<path fill="none" stroke="#000000" d="M661.8065,-505.3008C651.495,-495.7825 638.4148,-483.7084 627.1089,-473.2722"/>
<polygon fill="#000000" stroke="#000000" points="629.3432,-470.5714 619.6211,-466.3604 624.5952,-475.7151 629.3432,-470.5714"/>
</g>
<!-- CB Unix 3 -->
<g id="node33" class="node">
<title>CB Unix 3</title>
<ellipse fill="#b2dfee" stroke="#b2dfee" cx="780.8973" cy="-378" rx="49.2915" ry="18"/>
<text text-anchor="middle" x="780.8973" y="-374.3" font-family="Times,serif" font-size="14.00" fill="#000000">CB Unix 3</text>
</g>
<!-- CB Unix 2&#45;&gt;CB Unix 3 -->
<g id="edge37" class="edge">
<title>CB Unix 2&#45;&gt;CB Unix 3</title>
<path fill="none" stroke="#000000" d="M824.8572,-432.5708C817.7853,-423.7919 809.079,-412.9841 801.2854,-403.3093"/>
<polygon fill="#000000" stroke="#000000" points="804.0082,-401.1101 795.0093,-395.5182 798.5569,-405.5015 804.0082,-401.1101"/>
</g>
<!-- Unix/TS++ -->
<g id="node34" class="node">
<title>Unix/TS++</title>
<ellipse fill="#b2dfee" stroke="#b2dfee" cx="764.8973" cy="-306" rx="51.9908" ry="18"/>
<text text-anchor="middle" x="764.8973" y="-302.3" font-family="Times,serif" font-size="14.00" fill="#000000">Unix/TS++</text>
</g>
<!-- CB Unix 3&#45;&gt;Unix/TS++ -->
<g id="edge38" class="edge">
<title>CB Unix 3&#45;&gt;Unix/TS++</title>
<path fill="none" stroke="#000000" d="M776.8599,-359.8314C775.1487,-352.131 773.1139,-342.9743 771.2122,-334.4166"/>
<polygon fill="#000000" stroke="#000000" points="774.5752,-333.4159 768.9892,-324.4133 767.7419,-334.9344 774.5752,-333.4159"/>
</g>
<!-- PDP&#45;11 Sys V -->
<g id="node35" class="node">
<title>PDP&#45;11 Sys V</title>
<ellipse fill="#b2dfee" stroke="#b2dfee" cx="896.8973" cy="-306" rx="62.2891" ry="18"/>
<text text-anchor="middle" x="896.8973" y="-302.3" font-family="Times,serif" font-size="14.00" fill="#000000">PDP&#45;11 Sys V</text>
</g>
<!-- CB Unix 3&#45;&gt;PDP&#45;11 Sys V -->
<g id="edge39" class="edge">
<title>CB Unix 3&#45;&gt;PDP&#45;11 Sys V</title>
<path fill="none" stroke="#000000" d="M806.0676,-362.3771C822.445,-352.2118 844.0295,-338.8145 862.0479,-327.6307"/>
<polygon fill="#000000" stroke="#000000" points="863.9177,-330.5896 870.5684,-322.3421 860.2262,-324.6421 863.9177,-330.5896"/>
</g>
<!-- CB Unix 3&#45;&gt;TS 4.0 -->
<g id="edge46" class="edge">
<title>CB Unix 3&#45;&gt;TS 4.0</title>
<path fill="none" stroke="#000000" d="M750.2655,-363.6484C734.0645,-354.5172 715.2342,-341.1675 703.8973,-324 691.7767,-305.6456 687.1985,-280.989 685.5553,-262.1249"/>
<polygon fill="#000000" stroke="#000000" points="689.0418,-261.8018 684.9035,-252.0486 682.0564,-262.2537 689.0418,-261.8018"/>
</g>
<!-- Unix/TS++&#45;&gt;TS 4.0 -->
<g id="edge45" class="edge">
<title>Unix/TS++&#45;&gt;TS 4.0</title>
<path fill="none" stroke="#000000" d="M745.9385,-288.937C735.2015,-279.2738 721.637,-267.0657 710.0232,-256.6133"/>
<polygon fill="#000000" stroke="#000000" points="712.1276,-253.7985 702.3533,-249.7103 707.4449,-259.0016 712.1276,-253.7985"/>
</g>
<!-- USG 3.0&#45;&gt;Unix/TS 3.0 -->
<g id="edge41" class="edge">
<title>USG 3.0&#45;&gt;Unix/TS 3.0</title>
<path fill="none" stroke="#000000" d="M601.8973,-431.8314C601.8973,-424.131 601.8973,-414.9743 601.8973,-406.4166"/>
<polygon fill="#000000" stroke="#000000" points="605.3974,-406.4132 601.8973,-396.4133 598.3974,-406.4133 605.3974,-406.4132"/>
</g>
<!-- Unix/TS 1.0 -->
<g id="node37" class="node">
<title>Unix/TS 1.0</title>
<ellipse fill="#b2dfee" stroke="#b2dfee" cx="716.8973" cy="-450" rx="54.6905" ry="18"/>
<text text-anchor="middle" x="716.8973" y="-446.3" font-family="Times,serif" font-size="14.00" fill="#000000">Unix/TS 1.0</text>
</g>
<!-- Unix/TS 1.0&#45;&gt;Unix/TS 3.0 -->
<g id="edge43" class="edge">
<title>Unix/TS 1.0&#45;&gt;Unix/TS 3.0</title>
<path fill="none" stroke="#000000" d="M691.3751,-434.0209C675.1465,-423.8603 653.9348,-410.58 636.2375,-399.4999"/>
<polygon fill="#000000" stroke="#000000" points="637.6814,-396.2746 627.3482,-393.9345 633.9668,-402.2077 637.6814,-396.2746"/>
</g>
<!-- System V.0 -->
<g id="node39" class="node">
<title>System V.0</title>
<ellipse fill="#b2dfee" stroke="#b2dfee" cx="684.8973" cy="-162" rx="52.7911" ry="18"/>
<text text-anchor="middle" x="684.8973" y="-158.3" font-family="Times,serif" font-size="14.00" fill="#000000">System V.0</text>
</g>
<!-- TS 4.0&#45;&gt;System V.0 -->
<g id="edge47" class="edge">
<title>TS 4.0&#45;&gt;System V.0</title>
<path fill="none" stroke="#000000" d="M684.8973,-215.8314C684.8973,-208.131 684.8973,-198.9743 684.8973,-190.4166"/>
<polygon fill="#000000" stroke="#000000" points="688.3974,-190.4132 684.8973,-180.4133 681.3974,-190.4133 688.3974,-190.4132"/>
</g>
<!-- System V.2 -->
<g id="node40" class="node">
<title>System V.2</title>
<ellipse fill="#b2dfee" stroke="#b2dfee" cx="684.8973" cy="-90" rx="52.7911" ry="18"/>
<text text-anchor="middle" x="684.8973" y="-86.3" font-family="Times,serif" font-size="14.00" fill="#000000">System V.2</text>
</g>
<!-- System V.0&#45;&gt;System V.2 -->
<g id="edge48" class="edge">
<title>System V.0&#45;&gt;System V.2</title>
<path fill="none" stroke="#000000" d="M684.8973,-143.8314C684.8973,-136.131 684.8973,-126.9743 684.8973,-118.4166"/>
<polygon fill="#000000" stroke="#000000" points="688.3974,-118.4132 684.8973,-108.4133 681.3974,-118.4133 688.3974,-118.4132"/>
</g>
<!-- System V.3 -->
<g id="node41" class="node">
<title>System V.3</title>
<ellipse fill="#b2dfee" stroke="#b2dfee" cx="684.8973" cy="-18" rx="52.7911" ry="18"/>
<text text-anchor="middle" x="684.8973" y="-14.3" font-family="Times,serif" font-size="14.00" fill="#000000">System V.3</text>
</g>
<!-- System V.2&#45;&gt;System V.3 -->
<g id="edge49" class="edge">
<title>System V.2&#45;&gt;System V.3</title>
<path fill="none" stroke="#000000" d="M684.8973,-71.8314C684.8973,-64.131 684.8973,-54.9743 684.8973,-46.4166"/>
<polygon fill="#000000" stroke="#000000" points="688.3974,-46.4132 684.8973,-36.4133 681.3974,-46.4133 688.3974,-46.4132"/>
</g>
</g>
</svg>
